<svg version="1.1" id="Layer_1" xmlns="http://www.w3.org/2000/svg" xmlns:xlink="http://www.w3.org/1999/xlink" x="0px" y="0px"
	 viewBox="0 0 700 228" style="enable-background:new 0 0 700 228;" xml:space="preserve">
<style type="text/css">
	.st0{fill:#FFFFFF;stroke:#2E2E2E;stroke-width:9.375000e-02;stroke-miterlimit:10.43;}
</style>
<g>
	<path class="st0" d="M201.1,10.8c28.3-3.7,57.1,4.3,81.9,17.7c30.1,16.4,55.9,40.4,75.9,68.2c11.5,17.5,24.8,33.8,39.8,48.3
		c17.1,16.3,37,31,60.4,36.4c31.8,7.8,68.3-6.7,84.8-35.2c9.1-15.8,11.5-35,7.4-52.7c-3.5-13.6-11.1-26.1-21.3-35.7
		c-16.5-15.8-39.2-25.6-62.2-24.7c-23,0.2-45.8,7.4-65.2,19.7c-12.9,8-24.4,18.2-34.7,29.4c-1.9,2.6-6.1,0.8-6.4-2.2
		c0.4-2.8,2.8-4.7,4.4-6.8c18.5-22.4,42.8-40.5,70.7-49.4c13.6-4.3,27.9-6.5,42.1-6.4c27.3,0.8,53.9,13.1,72.9,32.7
		c13.4,13.8,22.7,31.7,25.6,50.7c3.6,22.5-0.8,46.3-12.7,65.8C546,197,511.7,216,476.6,217.9c-27.2,1.4-54.1-6.9-77.5-20.4
		c-31.6-18.2-57.7-45.1-77.4-75.7c-10.2-14.6-21.4-28.4-34-41C270.9,64,251.1,48.8,227.5,43C214.2,39.6,200,40,187,44.3
		c-19.6,6.3-37.1,19.6-47.3,37.7c-8.1,14.5-10.7,31.9-7.1,48.1c3.5,17,13.8,32,27.1,43c15.9,13.1,36.3,21.4,57.1,20.7
		c29.6,0,58.4-12,81-30.7c7-5.6,13.2-12.1,19.4-18.5c2-2.3,6.4-0.6,6.4,2.4c0.2,2.3-1.9,3.9-3.2,5.6c-18.4,21.8-42.2,39.8-69.7,48.5
		c-12.9,4.3-26.4,6.4-40,6.7c-24.6,0.3-48.9-9.6-67.6-25.4c-15.7-13.3-27.5-31.5-32-51.7c-4.9-21.3-1.7-44.2,8.6-63.4
		C135.9,37,167.3,15.7,201.1,10.8z"/>
</g>
</svg>